<?xml version="1.0" standalone="no"?>
<!DOCTYPE svg PUBLIC "-//W3C//DTD SVG 20010904//EN"
 "http://www.w3.org/TR/2001/REC-SVG-20010904/DTD/svg10.dtd">
<svg version="1.0" xmlns="http://www.w3.org/2000/svg"
 width="512.000000pt" height="512.000000pt" viewBox="0 0 512.000000 512.000000"
 preserveAspectRatio="xMidYMid meet">
<metadata>
Created by potrace 1.11, written by Peter Selinger 2001-2013
</metadata>
<g transform="translate(0.000000,512.000000) scale(0.100000,-0.100000)"
fill="#000000" stroke="none">
<path d="M2380 4777 c-3 -3 -39 -7 -80 -11 -210 -18 -442 -79 -653 -172 -106
-46 -287 -143 -287 -153 0 -4 26 -14 58 -23 159 -45 346 -105 427 -138 266
-107 381 -166 560 -285 132 -89 165 -116 271 -220 165 -163 268 -315 353 -519
63 -151 101 -291 134 -496 17 -99 21 -127 42 -302 13 -103 16 -125 20 -148 3
-14 7 -41 10 -60 4 -33 28 -168 39 -219 32 -150 96 -334 157 -450 21 -41 36
-77 33 -80 -2 -3 -50 19 -107 47 -261 133 -549 402 -912 854 -12 14 -211 282
-222 297 -22 31 55 -221 106 -349 102 -255 293 -593 434 -766 116 -142 164
-195 260 -289 62 -60 122 -117 132 -125 71 -55 111 -86 115 -90 11 -11 119
-90 124 -90 2 0 28 -16 58 -35 81 -54 291 -158 403 -200 237 -89 469 -139 735
-160 63 -5 368 -5 420 0 19 2 51 4 70 4 44 2 23 16 -37 25 -69 10 -248 72
-336 117 -301 151 -470 394 -531 764 -28 168 -30 200 -31 815 -1 556 -4 673
-21 748 -3 13 -7 43 -10 65 -13 97 -58 253 -99 344 -14 29 -25 56 -25 59 0 7
-122 208 -130 214 -3 3 -13 16 -22 28 -57 84 -215 232 -333 313 -203 138 -492
249 -800 305 -22 4 -42 8 -45 9 -3 0 -32 5 -65 9 -32 4 -66 9 -75 11 -45 8
-225 22 -303 24 -32 1 -56 5 -53 10 12 18 199 36 386 36 186 0 238 -6 445 -51
308 -66 657 -260 900 -500 118 -116 162 -168 244 -289 153 -224 259 -471 306
-716 20 -101 23 -120 31 -229 26 -326 -23 -625 -153 -930 -25 -58 -49 -110
-54 -116 -11 -13 -6 -27 39 -124 16 -36 44 -95 61 -133 17 -37 33 -67 35 -67
2 0 26 37 53 83 163 274 267 595 299 927 13 132 6 460 -12 521 -3 10 -6 30 -9
45 -10 74 -19 115 -51 232 -19 69 -51 166 -70 216 -41 102 -143 309 -156 314
-4 2 -8 8 -8 14 0 5 -31 56 -70 112 -120 177 -277 348 -435 475 -38 31 -72 59
-75 62 -3 3 -54 38 -115 77 -199 131 -431 233 -658 291 -105 27 -129 32 -224
47 -21 3 -49 8 -63 10 -32 7 -424 16 -430 11z"/>
<path d="M217 4534 c-1 -1 -49 -4 -107 -7 -58 -4 -107 -7 -110 -8 -3 0 26 -7
65 -16 344 -73 612 -246 742 -476 40 -71 72 -145 98 -228 24 -77 28 -93 40
-173 4 -21 8 -47 10 -58 17 -86 25 -249 24 -458 -4 -630 -2 -864 5 -930 5 -41
10 -84 11 -95 8 -89 56 -301 84 -370 55 -136 154 -313 216 -385 115 -133 258
-262 354 -318 25 -14 48 -29 51 -32 26 -28 294 -143 431 -184 81 -25 347 -83
379 -84 8 0 29 -2 45 -5 92 -16 285 -34 394 -36 46 -1 35 -10 -20 -17 -24 -3
-50 -7 -57 -10 -23 -7 -193 -18 -287 -18 -180 0 -296 15 -487 60 -10 2 -26 6
-35 8 -10 2 -54 16 -97 31 -502 169 -914 537 -1141 1020 -174 367 -228 783
-154 1175 32 171 96 366 161 495 l31 60 -69 153 c-38 83 -72 152 -75 152 -12
0 -111 -178 -160 -285 -89 -194 -152 -408 -183 -625 -22 -152 -22 -484 0 -593
2 -12 7 -44 10 -72 3 -27 8 -53 10 -56 2 -3 6 -21 9 -40 13 -74 67 -261 95
-326 6 -13 14 -33 18 -45 26 -70 150 -307 205 -390 213 -323 501 -581 847
-760 126 -66 294 -133 380 -154 8 -2 42 -11 75 -20 33 -9 69 -18 80 -20 11 -2
40 -8 65 -13 144 -32 504 -47 643 -28 26 4 68 10 95 13 189 23 434 98 637 194
112 54 233 123 219 126 -5 1 -52 16 -104 32 -52 16 -142 44 -200 62 -58 17
-118 38 -135 45 -16 7 -52 21 -80 31 -27 10 -61 24 -75 31 -14 7 -28 13 -32
13 -14 0 -292 140 -322 163 -6 4 -40 26 -76 48 -36 23 -66 45 -68 50 -2 5 -8
9 -14 9 -23 0 -198 155 -288 256 -153 171 -264 372 -338 614 -30 95 -76 315
-87 413 -2 18 -6 48 -9 67 -3 19 -8 58 -11 85 -4 28 -8 64 -10 80 -2 17 -7 50
-10 75 -37 297 -109 569 -204 765 -27 55 -47 102 -45 103 5 7 168 -81 240
-129 155 -103 371 -300 540 -490 27 -31 63 -71 79 -90 57 -64 230 -284 309
-392 44 -59 80 -106 82 -104 2 2 -10 45 -26 97 -219 720 -672 1329 -1240 1667
-223 132 -404 207 -655 270 -33 8 -68 16 -78 18 -10 2 -26 6 -35 9 -18 5 -57
11 -137 21 -27 4 -61 8 -75 11 -60 10 -433 26 -443 18z"/>
</g>
</svg>
