<svg xmlns="http://www.w3.org/2000/svg" version="1.1" xmlns:xlink="http://www.w3.org/1999/xlink" xmlns:svgjs="http://svgjs.com/svgjs" width="700.000000pt" height="700.000000pt"><svg version="1.0" xmlns="http://www.w3.org/2000/svg" width="700.000000pt" height="700.000000pt" viewBox="0 0 700.000000 700.000000" preserveAspectRatio="xMidYMid meet">
<metadata>
Created by potrace 1.14, written by Peter Selinger 2001-2017
</metadata>
<g transform="translate(0.000000,700.000000) scale(0.100000,-0.100000)" fill="#000000" stroke="none">
<path d="M3308 6535 c-3 -2 -51 -8 -163 -19 -105 -11 -165 -19 -203 -27 -23
-5 -59 -12 -80 -15 -65 -10 -250 -60 -372 -101 -216 -72 -640 -278 -625 -303
3 -5 38 -18 78 -30 664 -199 986 -338 1347 -580 206 -138 359 -275 521 -465
247 -290 419 -678 495 -1115 2 -14 7 -41 10 -60 4 -19 8 -48 10 -65 2 -16 6
-37 9 -45 4 -13 49 -353 60 -445 5 -47 15 -116 25 -170 5 -27 12 -72 16 -100
4 -27 8 -52 9 -55 1 -5 13 -72 22 -120 31 -178 133 -478 228 -668 20 -41 35
-80 33 -87 -4 -18 -185 72 -313 156 -360 236 -778 669 -1229 1272 -82 108
-150 197 -151 197 -7 0 81 -300 104 -355 5 -11 26 -65 46 -120 85 -225 281
-595 450 -850 234 -354 670 -794 990 -1000 233 -150 518 -291 745 -368 142
-48 378 -112 457 -122 11 -2 29 -6 40 -9 23 -7 205 -33 303 -43 41 -4 236 -8
432 -8 409 0 445 6 273 43 -310 68 -608 221 -790 406 -199 202 -306 426 -370
771 -42 232 -44 280 -50 1260 -4 699 -6 784 -25 890 -5 28 -12 70 -15 95 -26
201 -125 482 -233 663 -26 44 -55 93 -65 110 -38 64 -130 180 -205 256 -68 69
-112 110 -212 195 -200 169 -519 324 -873 426 -129 37 -348 86 -427 95 -34 5
-73 11 -117 19 -12 3 -54 8 -95 11 -40 4 -86 9 -103 11 -16 2 -86 6 -155 10
-69 4 -132 8 -140 10 -8 1 -22 3 -30 4 -27 1 10 17 60 25 25 4 53 9 64 11 125
23 635 23 756 -1 30 -6 57 -11 130 -26 296 -59 540 -149 800 -296 86 -49 301
-194 330 -223 3 -3 30 -25 60 -50 137 -111 302 -280 404 -415 224 -294 402
-665 482 -1000 4 -16 8 -34 10 -40 1 -5 5 -28 9 -50 4 -22 9 -43 10 -46 2 -3
7 -28 10 -55 4 -27 8 -56 10 -64 19 -67 26 -521 11 -645 -35 -295 -110 -565
-231 -838 l-57 -127 15 -39 c38 -93 170 -371 178 -371 7 0 42 54 102 155 37
64 138 277 175 371 81 204 147 446 178 644 3 25 8 52 9 60 27 147 28 815 1
858 -4 7 -7 24 -22 120 -18 116 -98 398 -155 546 -38 100 -168 368 -203 419
-14 21 -26 40 -26 42 0 7 -90 145 -124 191 -17 23 -40 55 -51 70 -100 142
-340 392 -509 533 -382 317 -888 548 -1411 645 -11 2 -45 7 -75 11 -30 4 -64
9 -75 12 -11 2 -126 6 -255 9 -129 3 -243 6 -252 8 -9 2 -18 3 -20 1z"></path>
<path d="M328 6205 c-2 -3 -51 -8 -109 -11 -57 -4 -115 -8 -129 -9 -14 -2 -38
-3 -54 -4 -37 -1 -31 -8 14 -16 85 -15 303 -77 365 -105 248 -109 382 -195
523 -339 85 -86 156 -189 211 -306 64 -134 122 -313 137 -420 2 -19 8 -52 19
-104 2 -13 7 -46 10 -75 3 -28 8 -67 11 -86 3 -19 7 -393 9 -830 3 -814 5
-915 30 -1080 41 -274 87 -434 175 -617 120 -246 195 -355 361 -523 77 -78
113 -111 208 -193 93 -81 436 -277 484 -277 7 0 17 -4 23 -9 19 -19 284 -110
404 -139 255 -63 337 -79 515 -102 50 -6 104 -13 120 -15 17 -2 68 -7 115 -10
47 -3 99 -8 116 -10 18 -3 67 -5 109 -6 109 -2 73 -17 -105 -44 -144 -22 -573
-22 -686 -1 -10 2 -41 7 -69 10 -181 24 -465 105 -645 183 -56 25 -252 123
-290 146 -72 43 -206 131 -231 151 -14 12 -41 32 -59 46 -68 50 -176 147 -266
237 -232 233 -420 516 -572 863 -52 120 -136 411 -156 544 -4 21 -8 48 -11 60
-17 81 -29 247 -29 411 0 162 7 246 30 398 35 231 127 529 231 744 35 73 42
96 33 110 -5 10 -48 101 -95 202 -47 101 -87 186 -89 188 -14 15 -222 -372
-276 -514 -109 -285 -184 -582 -207 -823 -10 -109 -10 -543 0 -635 28 -255
105 -568 196 -795 85 -211 260 -527 384 -691 426 -567 1018 -970 1672 -1139
231 -59 256 -63 550 -89 96 -8 516 -7 550 2 11 3 49 8 85 12 36 4 67 8 70 10
3 2 28 6 55 9 28 4 78 13 110 22 33 8 72 17 88 20 52 10 303 92 407 134 176
69 474 224 467 243 -1 5 -125 47 -274 93 -149 46 -329 107 -399 135 -71 28
-151 60 -179 71 -157 62 -555 284 -622 347 -12 12 -25 21 -28 21 -33 0 -328
268 -425 385 -76 93 -103 129 -163 220 -159 243 -265 516 -336 860 -39 195
-49 251 -66 400 -4 28 -8 61 -10 75 -2 14 -7 50 -10 80 -6 46 -48 337 -59 405
-31 191 -128 541 -185 670 -5 11 -21 47 -36 80 -64 139 -76 168 -73 176 3 8
100 -37 203 -95 315 -178 743 -582 1119 -1056 59 -74 113 -142 119 -150 7 -8
66 -86 131 -172 65 -87 121 -158 123 -158 8 0 -9 62 -57 210 -197 601 -519
1156 -915 1579 -98 104 -252 251 -334 317 -13 10 -28 24 -35 29 -6 6 -47 38
-91 71 -282 213 -616 390 -925 491 -97 31 -308 90 -355 99 -11 2 -51 10 -90
18 -38 8 -95 17 -126 20 -31 4 -65 8 -76 10 -78 15 -180 23 -423 31 -107 4
-198 9 -201 11 -3 2 -8 1 -11 -1z"></path>
</g>
</svg><style>@media (prefers-color-scheme: light) { :root { filter: none; } }
</style></svg>